<svg width="69" height="58" viewBox="0 0 69 58" fill="none" xmlns="http://www.w3.org/2000/svg">
<path fill-rule="evenodd" clip-rule="evenodd" d="M58.5 5.76389H10.5C7.73858 5.76389 5.5 8.00246 5.5 10.7639V47.7361C5.5 50.4975 7.73858 52.7361 10.5 52.7361H58.5C61.2614 52.7361 63.5 50.4975 63.5 47.7361V10.7639C63.5 8.00246 61.2614 5.76389 58.5 5.76389ZM10.5 0.763885C4.97715 0.763885 0.5 5.24105 0.5 10.7639V47.7361C0.5 53.2589 4.97715 57.7361 10.5 57.7361H58.5C64.0228 57.7361 68.5 53.2589 68.5 47.7361V10.7639C68.5 5.24104 64.0228 0.763885 58.5 0.763885H10.5Z" fill="white"/>
<path d="M26.5 36.5C25.3954 36.5 24.4791 37.4045 24.6975 38.4872C25.6191 43.0581 29.6576 46.5 34.5 46.5C39.3424 46.5 43.381 43.0581 44.3026 38.4872C44.5209 37.4045 43.6046 36.5 42.5 36.5H26.5Z" fill="white"/>
<path d="M13.5 16.5478C13.5 14.0361 15.5361 12 18.0478 12V12C20.5594 12 22.5956 14.0361 22.5956 16.5478V27.4522C22.5956 29.9639 20.5594 32 18.0478 32V32C15.5361 32 13.5 29.9639 13.5 27.4522V16.5478Z" fill="white"/>
<path d="M46.4045 16.5478C46.4045 14.0361 48.4406 12 50.9523 12V12C53.4639 12 55.5 14.0361 55.5 16.5478V27.4522C55.5 29.9639 53.4639 32 50.9523 32V32C48.4406 32 46.4045 29.9639 46.4045 27.4522V16.5478Z" fill="white"/>
</svg>
