<svg width="256" height="256" viewBox="0 0 256 256" fill="none" xmlns="http://www.w3.org/2000/svg">
<rect width="256" height="256" rx="10" fill="url(#paint0_linear_4_35)"/>
<mask id="mask0_4_35" style="mask-type:alpha" maskUnits="userSpaceOnUse" x="0" y="0" width="256" height="256">
<rect width="256" height="256" rx="10" fill="url(#paint1_linear_4_35)"/>
</mask>
<g mask="url(#mask0_4_35)">
<path opacity="0.1" fill-rule="evenodd" clip-rule="evenodd" d="M-547.621 1.87933H-511.913V37.5867H-547.621V1.87933ZM-510.034 37.5867V1.87933H-474.327V37.5867H-510.034ZM-547.621 39.466H-511.913V75.1733H-547.621V39.466ZM-510.034 39.466V75.1733H-474.327V39.466H-510.034ZM-547.621 77.0527H-511.913V112.76H-547.621V77.0527ZM-510.034 77.0527V112.76H-474.327V77.0527H-510.034ZM-547.621 114.639H-511.913V149.877H-547.621V114.639ZM-510.034 114.639V149.877H-474.327V114.639H-510.034ZM-547.621 151.756H-511.913V187.463H-547.621V151.756ZM-510.034 151.756V187.463H-474.327V151.756H-510.034ZM-547.621 189.343H-511.913V225.05H-547.621V189.343ZM-510.034 189.343V225.05H-474.327V189.343H-510.034ZM-547.621 226.929H-511.913V262.637H-547.621V226.929ZM-510.034 226.929V262.637H-474.327V226.929H-510.034ZM-547.621 264.516H-511.913V300.223H-547.621V264.516ZM-510.034 264.516V300.223H-474.327V264.516H-510.034ZM-547.621 302.103H-511.913V337.81H-547.621V302.103ZM-510.034 302.103V337.81H-474.327V302.103H-510.034ZM-547.621 339.689H-511.913V375.397H-547.621V339.689ZM-510.034 339.689V375.397H-474.327V339.689H-510.034ZM-547.621 377.276H-511.913V412.983H-547.621V377.276ZM-510.034 377.276V412.983H-474.327V377.276H-510.034ZM51.8869 1.87933H16.1796V37.5867H51.8869V1.87933ZM-21.4071 1.87933H14.3003V37.5867H-21.4071V1.87933ZM-21.4071 39.466H14.3003V75.1733H-21.4071V39.466ZM-21.4071 77.0527H14.3003V112.76H-21.4071V77.0527ZM16.1796 77.0527V112.76H51.8869V77.0527H16.1796ZM-21.4071 114.639H14.3003V149.877H-21.4071V114.639ZM16.1796 114.639V149.877H51.8869V114.639H16.1796ZM-21.4071 151.756H14.3003V187.463H-21.4071V151.756ZM16.1796 151.756V187.463H51.8869V151.756H16.1796ZM-21.4071 189.343H14.3003V225.05H-21.4071V189.343ZM16.1796 189.343V225.05H51.8869V189.343H16.1796ZM-21.4071 226.929H14.3003V262.637H-21.4071V226.929ZM16.1796 226.929V262.637H51.8869V226.929H16.1796ZM-21.4071 264.516H14.3003V300.223H-21.4071V264.516ZM16.1796 264.516V300.223H51.8869V264.516H16.1796ZM-21.4071 302.103H14.3003V337.81H-21.4071V302.103ZM16.1796 302.103V337.81H51.8869V302.103H16.1796ZM-21.4071 339.689H14.3003V375.397H-21.4071V339.689ZM16.1796 339.689V375.397H51.8869V339.689H16.1796ZM-21.4071 377.276H14.3003V412.983H-21.4071V377.276ZM16.1796 377.276V412.983H51.8869V377.276H16.1796ZM16.1796 39.466V75.1733H51.8869V39.466H16.1796ZM-96.5805 1.87933H-60.8731V37.5867H-96.5805V1.87933ZM-58.9938 37.5867V1.87933H-23.2864V37.5867H-58.9938ZM-96.5805 39.466H-60.8731V75.1733H-96.5805V39.466ZM-58.9938 39.466V75.1733H-23.2864V39.466H-58.9938ZM-96.5805 77.0527H-60.8731V112.76H-96.5805V77.0527ZM-58.9938 77.0527V112.76H-23.2864V77.0527H-58.9938ZM-96.5805 114.639H-60.8731V149.877H-96.5805V114.639ZM-58.9938 114.639V149.877H-23.2864V114.639H-58.9938ZM-96.5805 151.756H-60.8731V187.463H-96.5805V151.756ZM-58.9938 151.756V187.463H-23.2864V151.756H-58.9938ZM-96.5805 189.343H-60.8731V225.05H-96.5805V189.343ZM-58.9938 189.343V225.05H-23.2864V189.343H-58.9938ZM-96.5805 226.929H-60.8731V262.637H-96.5805V226.929ZM-58.9938 226.929V262.637H-23.2864V226.929H-58.9938ZM-96.5805 264.516H-60.8731V300.223H-96.5805V264.516ZM-58.9938 264.516V300.223H-23.2864V264.516H-58.9938ZM-96.5805 302.103H-60.8731V337.81H-96.5805V302.103ZM-58.9938 302.103V337.81H-23.2864V302.103H-58.9938ZM-96.5805 339.689H-60.8731V375.397H-96.5805V339.689ZM-58.9938 339.689V375.397H-23.2864V339.689H-58.9938ZM-96.5805 377.276H-60.8731V412.983H-96.5805V377.276ZM-58.9938 377.276V412.983H-23.2864V377.276H-58.9938ZM-134.167 1.87933H-98.4598V37.5867H-134.167V1.87933ZM-134.167 39.466H-98.4598V75.1733H-134.167V39.466ZM-134.167 77.0527H-98.4598V112.76H-134.167V77.0527ZM-134.167 114.639H-98.4598V149.877H-134.167V114.639ZM-134.167 151.756H-98.4598V187.463H-134.167V151.756ZM-134.167 189.343H-98.4598V225.05H-134.167V189.343ZM-134.167 226.929H-98.4598V262.637H-134.167V226.929ZM-134.167 264.516H-98.4598V300.223H-134.167V264.516ZM-134.167 302.103H-98.4598V337.81H-134.167V302.103ZM-134.167 339.689H-98.4598V375.397H-134.167V339.689ZM-134.167 377.276H-98.4598V412.983H-134.167V377.276ZM-171.754 1.87933H-136.046V37.5867H-171.754V1.87933ZM-171.754 39.466H-136.046V75.1733H-171.754V39.466ZM-171.754 77.0527H-136.046V112.76H-171.754V77.0527ZM-171.754 114.639H-136.046V149.877H-171.754V114.639ZM-171.754 151.756H-136.046V187.463H-171.754V151.756ZM-171.754 189.343H-136.046V225.05H-171.754V189.343ZM-171.754 226.929H-136.046V262.637H-171.754V226.929ZM-171.754 264.516H-136.046V300.223H-171.754V264.516ZM-171.754 302.103H-136.046V337.81H-171.754V302.103ZM-171.754 339.689H-136.046V375.397H-171.754V339.689ZM-171.754 377.276H-136.046V412.983H-171.754V377.276ZM-246.927 1.87933H-211.22V37.5867H-246.927V1.87933ZM-209.341 37.5867V1.87933H-173.633V37.5867H-209.341ZM-246.927 39.466H-211.22V75.1733H-246.927V39.466ZM-209.341 39.466V75.1733H-173.633V39.466H-209.341ZM-246.927 77.0527H-211.22V112.76H-246.927V77.0527ZM-209.341 77.0527V112.76H-173.633V77.0527H-209.341ZM-246.927 114.639H-211.22V149.877H-246.927V114.639ZM-209.341 114.639V149.877H-173.633V114.639H-209.341ZM-246.927 151.756H-211.22V187.463H-246.927V151.756ZM-209.341 151.756V187.463H-173.633V151.756H-209.341ZM-246.927 189.343H-211.22V225.05H-246.927V189.343ZM-209.341 189.343V225.05H-173.633V189.343H-209.341ZM-246.927 226.929H-211.22V262.637H-246.927V226.929ZM-209.341 226.929V262.637H-173.633V226.929H-209.341ZM-246.927 264.516H-211.22V300.223H-246.927V264.516ZM-209.341 264.516V300.223H-173.633V264.516H-209.341ZM-246.927 302.103H-211.22V337.81H-246.927V302.103ZM-209.341 302.103V337.81H-173.633V302.103H-209.341ZM-246.927 339.689H-211.22V375.397H-246.927V339.689ZM-209.341 339.689V375.397H-173.633V339.689H-209.341ZM-246.927 377.276H-211.22V412.983H-246.927V377.276ZM-209.341 377.276V412.983H-173.633V377.276H-209.341ZM-284.514 1.87933H-248.807V37.5867H-284.514V1.87933ZM-284.514 39.466H-248.807V75.1733H-284.514V39.466ZM-284.514 77.0527H-248.807V112.76H-284.514V77.0527ZM-284.514 114.639H-248.807V149.877H-284.514V114.639ZM-284.514 151.756H-248.807V187.463H-284.514V151.756ZM-284.514 189.343H-248.807V225.05H-284.514V189.343ZM-284.514 226.929H-248.807V262.637H-284.514V226.929ZM-284.514 264.516H-248.807V300.223H-284.514V264.516ZM-284.514 302.103H-248.807V337.81H-284.514V302.103ZM-284.514 339.689H-248.807V375.397H-284.514V339.689ZM-284.514 377.276H-248.807V412.983H-284.514V377.276ZM-322.101 1.87933H-286.393V37.5867H-322.101V1.87933ZM-322.101 39.466H-286.393V75.1733H-322.101V39.466ZM-322.101 77.0527H-286.393V112.76H-322.101V77.0527ZM-322.101 114.639H-286.393V149.877H-322.101V114.639ZM-322.101 151.756H-286.393V187.463H-322.101V151.756ZM-322.101 189.343H-286.393V225.05H-322.101V189.343ZM-322.101 226.929H-286.393V262.637H-322.101V226.929ZM-322.101 264.516H-286.393V300.223H-322.101V264.516ZM-322.101 302.103H-286.393V337.81H-322.101V302.103ZM-322.101 339.689H-286.393V375.397H-322.101V339.689ZM-322.101 377.276H-286.393V412.983H-322.101V377.276ZM-397.274 1.87933H-361.567V37.5867H-397.274V1.87933ZM-359.687 37.5867V1.87933H-323.98V37.5867H-359.687ZM-397.274 39.466H-361.567V75.1733H-397.274V39.466ZM-359.687 39.466V75.1733H-323.98V39.466H-359.687ZM-397.274 77.0527H-361.567V112.76H-397.274V77.0527ZM-359.687 77.0527V112.76H-323.98V77.0527H-359.687ZM-397.274 114.639H-361.567V149.877H-397.274V114.639ZM-359.687 114.639V149.877H-323.98V114.639H-359.687ZM-397.274 151.756H-361.567V187.463H-397.274V151.756ZM-359.687 151.756V187.463H-323.98V151.756H-359.687ZM-397.274 189.343H-361.567V225.05H-397.274V189.343ZM-359.687 189.343V225.05H-323.98V189.343H-359.687ZM-397.274 226.929H-361.567V262.637H-397.274V226.929ZM-359.687 226.929V262.637H-323.98V226.929H-359.687ZM-397.274 264.516H-361.567V300.223H-397.274V264.516ZM-359.687 264.516V300.223H-323.98V264.516H-359.687ZM-397.274 302.103H-361.567V337.81H-397.274V302.103ZM-359.687 302.103V337.81H-323.98V302.103H-359.687ZM-397.274 339.689H-361.567V375.397H-397.274V339.689ZM-359.687 339.689V375.397H-323.98V339.689H-359.687ZM-397.274 377.276H-361.567V412.983H-397.274V377.276ZM-359.687 377.276V412.983H-323.98V377.276H-359.687ZM-434.861 1.87933H-399.153V37.5867H-434.861V1.87933ZM-434.861 39.466H-399.153V75.1733H-434.861V39.466ZM-434.861 77.0527H-399.153V112.76H-434.861V77.0527ZM-434.861 114.639H-399.153V149.877H-434.861V114.639ZM-434.861 151.756H-399.153V187.463H-434.861V151.756ZM-434.861 189.343H-399.153V225.05H-434.861V189.343ZM-434.861 226.929H-399.153V262.637H-434.861V226.929ZM-434.861 264.516H-399.153V300.223H-434.861V264.516ZM-434.861 302.103H-399.153V337.81H-434.861V302.103ZM-434.861 339.689H-399.153V375.397H-434.861V339.689ZM-434.861 377.276H-399.153V412.983H-434.861V377.276ZM-472.447 1.87933H-436.74V37.5867H-472.447V1.87933ZM-472.447 39.466H-436.74V75.1733H-472.447V39.466ZM-472.447 77.0527H-436.74V112.76H-472.447V77.0527ZM-472.447 114.639H-436.74V149.877H-472.447V114.639ZM-472.447 151.756H-436.74V187.463H-472.447V151.756ZM-472.447 189.343H-436.74V225.05H-472.447V189.343ZM-472.447 226.929H-436.74V262.637H-472.447V226.929ZM-472.447 264.516H-436.74V300.223H-472.447V264.516ZM-472.447 302.103H-436.74V337.81H-472.447V302.103ZM-472.447 339.689H-436.74V375.397H-472.447V339.689ZM-472.447 377.276H-436.74V412.983H-472.447V377.276ZM53.7663 1.87933V37.5867H89.4736V1.87933H53.7663ZM53.7663 75.1733V39.466H89.4736V75.1733H53.7663ZM53.7663 112.76V77.0527H89.4736V112.76H53.7663ZM53.7663 149.877V114.639H89.4736V149.877H53.7663ZM53.7663 187.463V151.756H89.4736V187.463H53.7663ZM53.7663 225.05V189.343H89.4736V225.05H53.7663ZM53.7663 262.637V226.929H89.4736V262.637H53.7663ZM53.7663 300.223V264.516H89.4736V300.223H53.7663ZM53.7663 337.81V302.103H89.4736V337.81H53.7663ZM53.7663 375.397V339.689H89.4736V375.397H53.7663ZM53.7663 412.983V377.276H89.4736V412.983H53.7663ZM579.98 1.87933H615.687V37.5867H579.98V1.87933ZM578.101 1.87933H542.393V37.5867H578.101V1.87933ZM578.101 39.466H542.393V75.1733H578.101V39.466ZM578.101 77.0527H542.393V112.76H578.101V77.0527ZM579.98 112.76V77.0527H615.687V112.76H579.98ZM578.101 114.639H542.393V149.877H578.101V114.639ZM579.98 149.877V114.639H615.687V149.877H579.98ZM578.101 151.756H542.393V187.463H578.101V151.756ZM579.98 187.463V151.756H615.687V187.463H579.98ZM578.101 189.343H542.393V225.05H578.101V189.343ZM579.98 225.05V189.343H615.687V225.05H579.98ZM578.101 226.929H542.393V262.637H578.101V226.929ZM579.98 262.637V226.929H615.687V262.637H579.98ZM578.101 264.516H542.393V300.223H578.101V264.516ZM579.98 300.223V264.516H615.687V300.223H579.98ZM578.101 302.103H542.393V337.81H578.101V302.103ZM579.98 337.81V302.103H615.687V337.81H579.98ZM578.101 339.689H542.393V375.397H578.101V339.689ZM579.98 375.397V339.689H615.687V375.397H579.98ZM578.101 377.276H542.393V412.983H578.101V377.276ZM579.98 412.983V377.276H615.687V412.983H579.98ZM579.98 75.1733V39.466H615.687V75.1733H579.98ZM502.927 1.87933H467.22V37.5867H502.927V1.87933ZM504.806 1.87933V37.5867H540.514V1.87933H504.806ZM502.927 39.466H467.22V75.1733H502.927V39.466ZM504.806 75.1733V39.466H540.514V75.1733H504.806ZM502.927 77.0527H467.22V112.76H502.927V77.0527ZM504.806 112.76V77.0527H540.514V112.76H504.806ZM502.927 114.639H467.22V149.877H502.927V114.639ZM504.806 149.877V114.639H540.514V149.877H504.806ZM502.927 151.756H467.22V187.463H502.927V151.756ZM504.806 187.463V151.756H540.514V187.463H504.806ZM502.927 189.343H467.22V225.05H502.927V189.343ZM504.806 225.05V189.343H540.514V225.05H504.806ZM502.927 226.929H467.22V262.637H502.927V226.929ZM504.806 262.637V226.929H540.514V262.637H504.806ZM502.927 264.516H467.22V300.223H502.927V264.516ZM504.806 300.223V264.516H540.514V300.223H504.806ZM502.927 302.103H467.22V337.81H502.927V302.103ZM504.806 337.81V302.103H540.514V337.81H504.806ZM502.927 339.689H467.22V375.397H502.927V339.689ZM504.806 375.397V339.689H540.514V375.397H504.806ZM502.927 377.276H467.22V412.983H502.927V377.276ZM504.806 412.983V377.276H540.514V412.983H504.806ZM728.447 1.87933H692.74V37.5867H728.447V1.87933ZM730.327 1.87933H766.034V37.5867H730.327V1.87933ZM803.621 1.87933H767.913V37.5867H803.621V1.87933ZM804.56 0.469833V0H-548.56V0.469833H-549.5V413.453H-548.56V414.863H804.56V413.453H805.5V0.469833H804.56ZM803.621 412.983V377.276H767.913V412.983H803.621ZM803.621 375.397V339.689H767.913V375.397H803.621ZM803.621 337.81V302.103H767.913V337.81H803.621ZM803.621 300.223V264.516H767.913V300.223H803.621ZM803.621 262.637V226.929H767.913V262.637H803.621ZM803.621 225.05V189.343H767.913V225.05H803.621ZM803.621 187.463V151.756H767.913V187.463H803.621ZM803.621 149.877V114.639H767.913V149.877H803.621ZM803.621 112.76V77.0527H767.913V112.76H803.621ZM803.621 75.1733V39.466H767.913V75.1733H803.621ZM730.327 39.466H766.034V75.1733H730.327V39.466ZM730.327 77.0527H766.034V112.76H730.327V77.0527ZM730.327 114.639H766.034V149.877H730.327V114.639ZM730.327 151.756H766.034V187.463H730.327V151.756ZM730.327 189.343H766.034V225.05H730.327V189.343ZM730.327 226.929H766.034V262.637H730.327V226.929ZM730.327 264.516H766.034V300.223H730.327V264.516ZM730.327 302.103H766.034V337.81H730.327V302.103ZM730.327 339.689H766.034V375.397H730.327V339.689ZM730.327 377.276H766.034V412.983H730.327V377.276ZM728.447 39.466H692.74V75.1733H728.447V39.466ZM728.447 77.0527H692.74V112.76H728.447V77.0527ZM728.447 114.639H692.74V149.877H728.447V114.639ZM728.447 151.756H692.74V187.463H728.447V151.756ZM728.447 189.343H692.74V225.05H728.447V189.343ZM728.447 226.929H692.74V262.637H728.447V226.929ZM728.447 264.516H692.74V300.223H728.447V264.516ZM728.447 302.103H692.74V337.81H728.447V302.103ZM728.447 339.689H692.74V375.397H728.447V339.689ZM728.447 377.276H692.74V412.983H728.447V377.276ZM655.153 1.87933H690.861V37.5867H655.153V1.87933ZM653.274 1.87933H617.567V37.5867H653.274V1.87933ZM653.274 39.466H617.567V75.1733H653.274V39.466ZM653.274 77.0527H617.567V112.76H653.274V77.0527ZM655.153 112.76V77.0527H690.861V112.76H655.153ZM653.274 114.639H617.567V149.877H653.274V114.639ZM655.153 149.877V114.639H690.861V149.877H655.153ZM653.274 151.756H617.567V187.463H653.274V151.756ZM655.153 187.463V151.756H690.861V187.463H655.153ZM653.274 189.343H617.567V225.05H653.274V189.343ZM655.153 225.05V189.343H690.861V225.05H655.153ZM653.274 226.929H617.567V262.637H653.274V226.929ZM655.153 262.637V226.929H690.861V262.637H655.153ZM653.274 264.516H617.567V300.223H653.274V264.516ZM655.153 300.223V264.516H690.861V300.223H655.153ZM653.274 302.103H617.567V337.81H653.274V302.103ZM655.153 337.81V302.103H690.861V337.81H655.153ZM653.274 339.689H617.567V375.397H653.274V339.689ZM655.153 375.397V339.689H690.861V375.397H655.153ZM653.274 377.276H617.567V412.983H653.274V377.276ZM655.153 412.983V377.276H690.861V412.983H655.153ZM655.153 75.1733V39.466H690.861V75.1733H655.153ZM465.34 1.87933H429.633V37.5867H465.34V1.87933ZM465.34 39.466H429.633V75.1733H465.34V39.466ZM465.34 77.0527H429.633V112.76H465.34V77.0527ZM465.34 114.639H429.633V149.877H465.34V114.639ZM465.34 151.756H429.633V187.463H465.34V151.756ZM465.34 189.343H429.633V225.05H465.34V189.343ZM465.34 226.929H429.633V262.637H465.34V226.929ZM465.34 264.516H429.633V300.223H465.34V264.516ZM465.34 302.103H429.633V337.81H465.34V302.103ZM465.34 339.689H429.633V375.397H465.34V339.689ZM465.34 377.276H429.633V412.983H465.34V377.276ZM427.754 1.87933H392.046V37.5867H427.754V1.87933ZM427.754 39.466H392.046V75.1733H427.754V39.466ZM427.754 77.0527H392.046V112.76H427.754V77.0527ZM427.754 114.639H392.046V149.877H427.754V114.639ZM427.754 151.756H392.046V187.463H427.754V151.756ZM427.754 189.343H392.046V225.05H427.754V189.343ZM427.754 226.929H392.046V262.637H427.754V226.929ZM427.754 264.516H392.046V300.223H427.754V264.516ZM427.754 302.103H392.046V337.81H427.754V302.103ZM427.754 339.689H392.046V375.397H427.754V339.689ZM427.754 377.276H392.046V412.983H427.754V377.276ZM352.58 1.87933H316.873V37.5867H352.58V1.87933ZM354.46 1.87933V37.5867H390.167V1.87933H354.46ZM352.58 39.466H316.873V75.1733H352.58V39.466ZM354.46 75.1733V39.466H390.167V75.1733H354.46ZM352.58 77.0527H316.873V112.76H352.58V77.0527ZM354.46 112.76V77.0527H390.167V112.76H354.46ZM352.58 114.639H316.873V149.877H352.58V114.639ZM354.46 149.877V114.639H390.167V149.877H354.46ZM352.58 151.756H316.873V187.463H352.58V151.756ZM354.46 187.463V151.756H390.167V187.463H354.46ZM352.58 189.343H316.873V225.05H352.58V189.343ZM354.46 225.05V189.343H390.167V225.05H354.46ZM352.58 226.929H316.873V262.637H352.58V226.929ZM354.46 262.637V226.929H390.167V262.637H354.46ZM352.58 264.516H316.873V300.223H352.58V264.516ZM354.46 300.223V264.516H390.167V300.223H354.46ZM352.58 302.103H316.873V337.81H352.58V302.103ZM354.46 337.81V302.103H390.167V337.81H354.46ZM352.58 339.689H316.873V375.397H352.58V339.689ZM354.46 375.397V339.689H390.167V375.397H354.46ZM352.58 377.276H316.873V412.983H352.58V377.276ZM354.46 412.983V377.276H390.167V412.983H354.46ZM314.994 1.87933H279.286V37.5867H314.994V1.87933ZM314.994 39.466H279.286V75.1733H314.994V39.466ZM314.994 77.0527H279.286V112.76H314.994V77.0527ZM314.994 114.639H279.286V149.877H314.994V114.639ZM314.994 151.756H279.286V187.463H314.994V151.756ZM314.994 189.343H279.286V225.05H314.994V189.343ZM314.994 226.929H279.286V262.637H314.994V226.929ZM314.994 264.516H279.286V300.223H314.994V264.516ZM314.994 302.103H279.286V337.81H314.994V302.103ZM314.994 339.689H279.286V375.397H314.994V339.689ZM314.994 377.276H279.286V412.983H314.994V377.276ZM277.407 1.87933H241.7V37.5867H277.407V1.87933ZM277.407 39.466H241.7V75.1733H277.407V39.466ZM277.407 77.0527H241.7V112.76H277.407V77.0527ZM277.407 114.639H241.7V149.877H277.407V114.639ZM277.407 151.756H241.7V187.463H277.407V151.756ZM277.407 189.343H241.7V225.05H277.407V189.343ZM277.407 226.929H241.7V262.637H277.407V226.929ZM277.407 264.516H241.7V300.223H277.407V264.516ZM277.407 302.103H241.7V337.81H277.407V302.103ZM277.407 339.689H241.7V375.397H277.407V339.689ZM277.407 377.276H241.7V412.983H277.407V377.276ZM202.234 1.87933H166.526V37.5867H202.234V1.87933ZM204.113 1.87933V37.5867H239.82V1.87933H204.113ZM202.234 39.466H166.526V75.1733H202.234V39.466ZM204.113 75.1733V39.466H239.82V75.1733H204.113ZM202.234 77.0527H166.526V112.76H202.234V77.0527ZM204.113 112.76V77.0527H239.82V112.76H204.113ZM202.234 114.639H166.526V149.877H202.234V114.639ZM204.113 149.877V114.639H239.82V149.877H204.113ZM202.234 151.756H166.526V187.463H202.234V151.756ZM204.113 187.463V151.756H239.82V187.463H204.113ZM202.234 189.343H166.526V225.05H202.234V189.343ZM204.113 225.05V189.343H239.82V225.05H204.113ZM202.234 226.929H166.526V262.637H202.234V226.929ZM204.113 262.637V226.929H239.82V262.637H204.113ZM202.234 264.516H166.526V300.223H202.234V264.516ZM204.113 300.223V264.516H239.82V300.223H204.113ZM202.234 302.103H166.526V337.81H202.234V302.103ZM204.113 337.81V302.103H239.82V337.81H204.113ZM202.234 339.689H166.526V375.397H202.234V339.689ZM204.113 375.397V339.689H239.82V375.397H204.113ZM202.234 377.276H166.526V412.983H202.234V377.276ZM204.113 412.983V377.276H239.82V412.983H204.113ZM164.647 1.87933H128.94V37.5867H164.647V1.87933ZM164.647 39.466H128.94V75.1733H164.647V39.466ZM164.647 77.0527H128.94V112.76H164.647V77.0527ZM164.647 114.639H128.94V149.877H164.647V114.639ZM164.647 151.756H128.94V187.463H164.647V151.756ZM164.647 189.343H128.94V225.05H164.647V189.343ZM164.647 226.929H128.94V262.637H164.647V226.929ZM164.647 264.516H128.94V300.223H164.647V264.516ZM164.647 302.103H128.94V337.81H164.647V302.103ZM164.647 339.689H128.94V375.397H164.647V339.689ZM164.647 377.276H128.94V412.983H164.647V377.276ZM127.06 1.87933H91.353V37.5867H127.06V1.87933ZM127.06 39.466H91.353V75.1733H127.06V39.466ZM127.06 77.0527H91.353V112.76H127.06V77.0527ZM127.06 114.639H91.353V149.877H127.06V114.639ZM127.06 151.756H91.353V187.463H127.06V151.756ZM127.06 189.343H91.353V225.05H127.06V189.343ZM127.06 226.929H91.353V262.637H127.06V226.929ZM127.06 264.516H91.353V300.223H127.06V264.516ZM127.06 302.103H91.353V337.81H127.06V302.103ZM127.06 339.689H91.353V375.397H127.06V339.689ZM127.06 377.276H91.353V412.983H127.06V377.276Z" fill="url(#paint2_radial_4_35)"/>
</g>
<path d="M78.1562 137.062L141.594 69.0938L128 118.937H177.844L114.406 186.906L128 137.062H78.1562Z" stroke="#D1BEEF" stroke-width="6" stroke-linecap="round" stroke-linejoin="round"/>
<defs>
<linearGradient id="paint0_linear_4_35" x1="128" y1="0" x2="128" y2="243" gradientUnits="userSpaceOnUse">
<stop stop-color="#15142F"/>
<stop offset="1" stop-color="#09021C"/>
</linearGradient>
<linearGradient id="paint1_linear_4_35" x1="128" y1="0" x2="128" y2="243" gradientUnits="userSpaceOnUse">
<stop stop-color="#15142F"/>
<stop offset="1" stop-color="#09021C"/>
</linearGradient>
<radialGradient id="paint2_radial_4_35" cx="0" cy="0" r="1" gradientUnits="userSpaceOnUse" gradientTransform="translate(128 -0.469815) rotate(90) scale(415.333 665.774)">
<stop stop-color="#59107C"/>
<stop offset="1" stop-color="white" stop-opacity="0"/>
</radialGradient>
</defs>
</svg>
